<svg xmlns="http://www.w3.org/2000/svg" width="1968" height="108" viewBox="0 0 1968 108">
  <g id="Group_15" data-name="Group 15" transform="translate(-3 -1957)">
    <g id="Rectangle_9" data-name="Rectangle 9" transform="translate(158 1957)" fill="#fff" stroke="#707070" stroke-width="1">
      <rect width="108" height="108" rx="33" stroke="none"/>
      <rect x="0.5" y="0.5" width="107" height="107" rx="32.5" fill="none"/>
    </g>
    <g id="Rectangle_21" data-name="Rectangle 21" transform="translate(3 1957)" fill="#fff" stroke="#707070" stroke-width="1">
      <rect width="108" height="108" rx="33" stroke="none"/>
      <rect x="0.5" y="0.5" width="107" height="107" rx="32.5" fill="none"/>
    </g>
    <g id="Rectangle_16" data-name="Rectangle 16" transform="translate(778 1957)" fill="#fff" stroke="#707070" stroke-width="1">
      <rect width="108" height="108" rx="33" stroke="none"/>
      <rect x="0.5" y="0.5" width="107" height="107" rx="32.5" fill="none"/>
    </g>
    <g id="Rectangle_20" data-name="Rectangle 20" transform="translate(1398 1957)" fill="#fff" stroke="#707070" stroke-width="1">
      <rect width="108" height="108" rx="33" stroke="none"/>
      <rect x="0.5" y="0.5" width="107" height="107" rx="32.5" fill="none"/>
    </g>
    <g id="Rectangle_10" data-name="Rectangle 10" transform="translate(313 1957)" fill="#fff" stroke="#707070" stroke-width="1">
      <rect width="108" height="108" rx="33" stroke="none"/>
      <rect x="0.5" y="0.5" width="107" height="107" rx="32.5" fill="none"/>
    </g>
    <g id="Rectangle_15" data-name="Rectangle 15" transform="translate(933 1957)" fill="#fff" stroke="#707070" stroke-width="1">
      <rect width="108" height="108" rx="33" stroke="none"/>
      <rect x="0.5" y="0.5" width="107" height="107" rx="32.5" fill="none"/>
    </g>
    <g id="Rectangle_19" data-name="Rectangle 19" transform="translate(1553 1957)" fill="#fff" stroke="#707070" stroke-width="1">
      <rect width="108" height="108" rx="33" stroke="none"/>
      <rect x="0.5" y="0.5" width="107" height="107" rx="32.5" fill="none"/>
    </g>
    <g id="Rectangle_11" data-name="Rectangle 11" transform="translate(468 1957)" fill="#fff" stroke="#707070" stroke-width="1">
      <rect width="108" height="108" rx="33" stroke="none"/>
      <rect x="0.5" y="0.5" width="107" height="107" rx="32.5" fill="none"/>
    </g>
    <g id="Rectangle_14" data-name="Rectangle 14" transform="translate(1088 1957)" fill="#fff" stroke="#707070" stroke-width="1">
      <rect width="108" height="108" rx="33" stroke="none"/>
      <rect x="0.5" y="0.5" width="107" height="107" rx="32.5" fill="none"/>
    </g>
    <g id="Rectangle_18" data-name="Rectangle 18" transform="translate(1708 1957)" fill="#fff" stroke="#707070" stroke-width="1">
      <rect width="108" height="108" rx="33" stroke="none"/>
      <rect x="0.5" y="0.5" width="107" height="107" rx="32.5" fill="none"/>
    </g>
    <g id="Rectangle_12" data-name="Rectangle 12" transform="translate(623 1957)" fill="#fff" stroke="#707070" stroke-width="1">
      <rect width="108" height="108" rx="33" stroke="none"/>
      <rect x="0.5" y="0.5" width="107" height="107" rx="32.5" fill="none"/>
    </g>
    <g id="Rectangle_13" data-name="Rectangle 13" transform="translate(1243 1957)" fill="#fff" stroke="#707070" stroke-width="1">
      <rect width="108" height="108" rx="33" stroke="none"/>
      <rect x="0.5" y="0.5" width="107" height="107" rx="32.5" fill="none"/>
    </g>
    <g id="Rectangle_17" data-name="Rectangle 17" transform="translate(1863 1957)" fill="#fff" stroke="#707070" stroke-width="1">
      <rect width="108" height="108" rx="33" stroke="none"/>
      <rect x="0.5" y="0.5" width="107" height="107" rx="32.5" fill="none"/>
    </g>
  </g>
</svg>
