<svg xmlns="http://www.w3.org/2000/svg" width="43.933" height="43.933" viewBox="0 0 43.933 43.933">
  <path id="instagram" d="M21.967,0C16,0,15.254.027,12.911.132A16.2,16.2,0,0,0,7.579,1.153,10.757,10.757,0,0,0,3.687,3.687,10.718,10.718,0,0,0,1.153,7.579,16.15,16.15,0,0,0,.132,12.911C.022,15.254,0,16,0,21.967s.027,6.713.132,9.056a16.208,16.208,0,0,0,1.021,5.332,10.773,10.773,0,0,0,2.533,3.892A10.742,10.742,0,0,0,7.579,42.78,16.218,16.218,0,0,0,12.911,43.8c2.343.11,3.088.132,9.056.132s6.713-.027,9.056-.132a16.255,16.255,0,0,0,5.332-1.021,11.226,11.226,0,0,0,6.425-6.425A16.208,16.208,0,0,0,43.8,31.023c.11-2.343.132-3.088.132-9.056s-.027-6.713-.132-9.056A16.245,16.245,0,0,0,42.78,7.579a10.781,10.781,0,0,0-2.533-3.892,10.7,10.7,0,0,0-3.892-2.533A16.16,16.16,0,0,0,31.023.132C28.679.022,27.934,0,21.967,0Zm0,3.954c5.863,0,6.563.029,8.878.13a12.1,12.1,0,0,1,4.077.76,7.229,7.229,0,0,1,4.17,4.168,12.128,12.128,0,0,1,.756,4.077c.1,2.317.128,3.013.128,8.878s-.027,6.563-.135,8.878a12.362,12.362,0,0,1-.771,4.077,6.975,6.975,0,0,1-1.646,2.53,6.853,6.853,0,0,1-2.526,1.64,12.217,12.217,0,0,1-4.091.756c-2.332.1-3.019.128-8.895.128s-6.564-.027-8.895-.135a12.456,12.456,0,0,1-4.093-.771A6.8,6.8,0,0,1,6.4,37.424,6.67,6.67,0,0,1,4.752,34.9a12.466,12.466,0,0,1-.769-4.091c-.082-2.307-.112-3.019-.112-8.867s.029-6.564.112-8.9a12.452,12.452,0,0,1,.769-4.089A6.512,6.512,0,0,1,6.4,6.423,6.5,6.5,0,0,1,8.924,4.78a12.158,12.158,0,0,1,4.066-.771c2.334-.082,3.02-.11,8.895-.11l.082.055Zm0,6.733a11.28,11.28,0,1,0,11.28,11.28,11.279,11.279,0,0,0-11.28-11.28Zm0,18.6a7.322,7.322,0,1,1,7.322-7.322A7.32,7.32,0,0,1,21.967,29.289ZM36.329,10.242a2.636,2.636,0,1,1-2.636-2.634A2.638,2.638,0,0,1,36.329,10.242Z" transform="translate(0 0)" fill="#fff"/>
</svg>
